<svg width="195" height="127" viewBox="0 0 195 127" fill="none" xmlns="http://www.w3.org/2000/svg">
<path d="M52 102L1 125.501L77.5 117C227.5 136 208.757 29.0989 148.5 6.00007C118.5 -5.50002 77.5 10.5 68 17.5006C35.7359 41.2761 50.8333 83.6671 52 102Z" fill="white" stroke="black" stroke-width="2"/>
<path d="M76.3174 51.986C76.1494 51.986 75.9954 51.9207 75.8554 51.79C74.7727 50.502 73.7274 48.7007 72.7194 46.386C72.3367 47.59 71.6274 49.2093 70.5914 51.244C70.5167 51.3747 70.4467 51.51 70.3814 51.65C70.2414 51.874 70.0407 51.986 69.7794 51.986C69.4247 51.986 69.0187 51.5333 68.5614 50.628C68.0574 49.536 67.5954 48.01 67.1754 46.05C66.9794 45.0887 66.7414 44.1413 66.4614 43.208C66.4427 43.1427 66.4334 43.082 66.4334 43.026C66.4334 42.9047 66.4754 42.7787 66.5594 42.648C66.6807 42.4427 66.8674 42.34 67.1194 42.34C67.4554 42.34 67.6747 42.508 67.7774 42.844C67.9547 43.3853 68.1787 44.2673 68.4494 45.49C68.804 47.2353 69.1867 48.6027 69.5974 49.592L69.6394 49.704L69.7374 49.9C70.12 49.1347 70.4794 48.3647 70.8154 47.59C70.834 47.5713 70.8434 47.5573 70.8434 47.548C70.8434 47.5293 70.848 47.5153 70.8574 47.506L70.8714 47.45L70.9694 47.24L71.1514 46.764C71.4314 46.0267 71.6414 45.2847 71.7814 44.538L71.8234 44.286C71.842 43.95 72.01 43.7307 72.3274 43.628C72.3834 43.6093 72.4394 43.6 72.4954 43.6C72.7754 43.6 72.976 43.712 73.0974 43.936L73.6854 45.224C74.4227 46.904 75.1227 48.2853 75.7854 49.368L75.9954 49.704L76.4294 48.164C76.868 46.6613 77.1574 45.4713 77.2974 44.594L77.3254 44.482L77.3394 44.258C77.3674 44.0527 77.3814 43.8427 77.3814 43.628C77.3814 43.432 77.372 43.2313 77.3534 43.026V42.998C77.3534 42.8207 77.4234 42.6667 77.5634 42.536C77.7127 42.4053 77.8714 42.34 78.0394 42.34C78.2447 42.34 78.4034 42.41 78.5154 42.55C78.6367 42.6807 78.7067 42.8347 78.7254 43.012C78.744 43.18 78.7534 43.348 78.7534 43.516L78.7394 43.838C78.6274 45.2007 78.366 46.5307 77.9554 47.828L77.7034 48.696C77.414 49.6107 77.1807 50.5393 77.0034 51.482C76.9194 51.818 76.6907 51.986 76.3174 51.986ZM81.3822 43.488C81.1955 43.488 81.0322 43.4227 80.8922 43.292C80.7615 43.152 80.6962 42.9887 80.6962 42.802C80.6962 42.6153 80.7615 42.4567 80.8922 42.326C81.0322 42.186 81.1955 42.116 81.3822 42.116C81.5688 42.116 81.7275 42.186 81.8582 42.326C81.9982 42.4567 82.0682 42.6153 82.0682 42.802C82.0682 42.9887 81.9982 43.152 81.8582 43.292C81.7275 43.4227 81.5688 43.488 81.3822 43.488ZM82.3202 51.356C82.3295 51.412 82.3342 51.468 82.3342 51.524C82.3342 51.6453 82.3015 51.7713 82.2362 51.902C82.1708 52.0327 82.0402 52.1307 81.8442 52.196C81.7882 52.2053 81.7368 52.21 81.6902 52.21C81.5688 52.21 81.4335 52.1727 81.2842 52.098C81.1442 52.0327 81.0508 51.9067 81.0042 51.72C80.8362 50.5907 80.7335 49.4847 80.6962 48.402C80.6588 47.31 80.6402 46.1993 80.6402 45.07C80.6402 44.8833 80.7055 44.7247 80.8362 44.594C80.9762 44.454 81.1395 44.384 81.3262 44.384C81.5128 44.384 81.6715 44.454 81.8022 44.594C81.9422 44.7247 82.0122 44.8833 82.0122 45.07V45.798C82.0122 46.6567 82.0262 47.4873 82.0542 48.29C82.0728 48.8313 82.1055 49.3727 82.1522 49.914L82.2362 50.726L82.2642 50.922C82.2642 50.95 82.2688 50.978 82.2782 51.006C82.2875 51.118 82.3015 51.2347 82.3202 51.356ZM86.7019 52.294C86.5339 52.294 86.3192 52.266 86.0579 52.21C85.7965 52.154 85.5445 51.9767 85.3019 51.678C85.0592 51.37 84.8912 51.034 84.7979 50.67C84.6205 50.0353 84.5319 49.1627 84.5319 48.052C84.5319 47.492 84.5552 46.932 84.6019 46.372L84.6299 45.91H84.0699C83.8832 45.91 83.7199 45.8447 83.5799 45.714C83.4492 45.574 83.3839 45.4107 83.3839 45.224C83.3839 45.0373 83.4492 44.8787 83.5799 44.748C83.7199 44.608 83.8832 44.538 84.0699 44.538H84.6719V44.258C84.6719 43.978 84.6625 43.6933 84.6439 43.404V43.376C84.6439 43.1987 84.7139 43.0493 84.8539 42.928C84.9939 42.7973 85.1525 42.732 85.3299 42.732C85.5259 42.732 85.6845 42.7973 85.8059 42.928C85.9272 43.0587 85.9925 43.2173 86.0019 43.404C86.0299 43.7867 86.0439 44.1647 86.0439 44.538H87.0659C87.2432 44.538 87.3972 44.608 87.5279 44.748C87.6679 44.8787 87.7379 45.0373 87.7379 45.224C87.7379 45.4107 87.6679 45.574 87.5279 45.714C87.3972 45.8447 87.2432 45.91 87.0659 45.91H86.0019C85.9459 46.75 85.9132 47.5947 85.9039 48.444C85.9039 48.8733 85.9272 49.3027 85.9739 49.732L86.0159 49.942L86.1839 50.544L86.3099 50.782C86.3379 50.8007 86.3565 50.8193 86.3659 50.838C86.3845 50.8473 86.3939 50.8567 86.3939 50.866L86.4219 50.88C86.5152 50.9173 86.6039 50.936 86.6879 50.936C86.7252 50.936 86.7625 50.936 86.7999 50.936C86.8372 50.9267 86.8792 50.9173 86.9259 50.908C86.9725 50.8987 87.0239 50.894 87.0799 50.894C87.2012 50.894 87.3319 50.9267 87.4719 50.992C87.6772 51.104 87.7799 51.2953 87.7799 51.566C87.7799 52.0513 87.4205 52.294 86.7019 52.294ZM90.1173 52.182C89.9306 52.182 89.7673 52.1167 89.6273 51.986C89.4966 51.8553 89.4313 51.6967 89.4313 51.51V42.018C89.4313 41.8313 89.4966 41.6727 89.6273 41.542C89.7673 41.402 89.9306 41.332 90.1173 41.332C90.304 41.332 90.4626 41.402 90.5933 41.542C90.7333 41.6727 90.8033 41.8313 90.8033 42.018V44.678C91.3166 44.342 91.8486 44.174 92.3993 44.174C92.7073 44.174 93.0246 44.2253 93.3513 44.328C94.5926 44.8227 95.386 45.7233 95.7313 47.03C95.8713 47.5993 95.9413 48.2293 95.9413 48.92C95.9413 49.34 95.9273 49.76 95.8993 50.18C95.8806 50.6 95.8713 51.0107 95.8713 51.412C95.862 51.608 95.792 51.7713 95.6613 51.902C95.5306 52.0327 95.372 52.098 95.1853 52.098C94.9986 52.098 94.84 52.0327 94.7093 51.902C94.5786 51.7713 94.5086 51.608 94.4993 51.412L94.5413 50.208C94.5693 49.844 94.5833 49.4847 94.5833 49.13C94.5833 48.514 94.5693 48.1407 94.5413 48.01L94.5273 47.954L94.4993 47.758C94.4246 47.394 94.35 47.128 94.2753 46.96V46.946L94.1773 46.75C94.0653 46.5447 93.9813 46.414 93.9253 46.358C93.888 46.274 93.748 46.1293 93.5053 45.924L93.4493 45.896C93.356 45.8213 93.2253 45.7467 93.0573 45.672C92.964 45.6253 92.8426 45.588 92.6933 45.56C92.684 45.56 92.6653 45.5553 92.6373 45.546C92.6093 45.5367 92.558 45.532 92.4833 45.532L92.3713 45.546H92.2033C92.0353 45.5833 91.9093 45.6207 91.8253 45.658L91.5033 45.84C91.4286 45.896 91.34 45.9847 91.2373 46.106L91.1673 46.19C91.102 46.302 91.046 46.4093 90.9993 46.512C90.99 46.512 90.9853 46.5167 90.9853 46.526V46.54C90.9013 46.736 90.85 46.9227 90.8313 47.1C90.8313 47.1187 90.8266 47.1327 90.8173 47.142L90.8033 51.51C90.8033 51.6967 90.7333 51.8553 90.5933 51.986C90.4626 52.1167 90.304 52.182 90.1173 52.182ZM103.606 52.294C103.438 52.294 103.224 52.266 102.962 52.21C102.701 52.154 102.449 51.9767 102.206 51.678C101.964 51.37 101.796 51.034 101.702 50.67C101.525 50.0353 101.436 49.1627 101.436 48.052C101.436 47.492 101.46 46.932 101.506 46.372L101.534 45.91H100.974C100.788 45.91 100.624 45.8447 100.484 45.714C100.354 45.574 100.288 45.4107 100.288 45.224C100.288 45.0373 100.354 44.8787 100.484 44.748C100.624 44.608 100.788 44.538 100.974 44.538H101.576V44.258C101.576 43.978 101.567 43.6933 101.548 43.404V43.376C101.548 43.1987 101.618 43.0493 101.758 42.928C101.898 42.7973 102.057 42.732 102.234 42.732C102.43 42.732 102.589 42.7973 102.71 42.928C102.832 43.0587 102.897 43.2173 102.906 43.404C102.934 43.7867 102.948 44.1647 102.948 44.538H103.97C104.148 44.538 104.302 44.608 104.432 44.748C104.572 44.8787 104.642 45.0373 104.642 45.224C104.642 45.4107 104.572 45.574 104.432 45.714C104.302 45.8447 104.148 45.91 103.97 45.91H102.906C102.85 46.75 102.818 47.5947 102.808 48.444C102.808 48.8733 102.832 49.3027 102.878 49.732L102.92 49.942L103.088 50.544L103.214 50.782C103.242 50.8007 103.261 50.8193 103.27 50.838C103.289 50.8473 103.298 50.8567 103.298 50.866L103.326 50.88C103.42 50.9173 103.508 50.936 103.592 50.936C103.63 50.936 103.667 50.936 103.704 50.936C103.742 50.9267 103.784 50.9173 103.83 50.908C103.877 50.8987 103.928 50.894 103.984 50.894C104.106 50.894 104.236 50.9267 104.376 50.992C104.582 51.104 104.684 51.2953 104.684 51.566C104.684 52.0513 104.325 52.294 103.606 52.294ZM107.022 52.182C106.835 52.182 106.672 52.1167 106.532 51.986C106.401 51.8553 106.336 51.6967 106.336 51.51V42.018C106.336 41.8313 106.401 41.6727 106.532 41.542C106.672 41.402 106.835 41.332 107.022 41.332C107.208 41.332 107.367 41.402 107.498 41.542C107.638 41.6727 107.708 41.8313 107.708 42.018V44.678C108.221 44.342 108.753 44.174 109.304 44.174C109.612 44.174 109.929 44.2253 110.256 44.328C111.497 44.8227 112.29 45.7233 112.636 47.03C112.776 47.5993 112.846 48.2293 112.846 48.92C112.846 49.34 112.832 49.76 112.804 50.18C112.785 50.6 112.776 51.0107 112.776 51.412C112.766 51.608 112.696 51.7713 112.566 51.902C112.435 52.0327 112.276 52.098 112.09 52.098C111.903 52.098 111.744 52.0327 111.614 51.902C111.483 51.7713 111.413 51.608 111.404 51.412L111.446 50.208C111.474 49.844 111.488 49.4847 111.488 49.13C111.488 48.514 111.474 48.1407 111.446 48.01L111.432 47.954L111.404 47.758C111.329 47.394 111.254 47.128 111.18 46.96V46.946L111.082 46.75C110.97 46.5447 110.886 46.414 110.83 46.358C110.792 46.274 110.652 46.1293 110.41 45.924L110.354 45.896C110.26 45.8213 110.13 45.7467 109.962 45.672C109.868 45.6253 109.747 45.588 109.598 45.56C109.588 45.56 109.57 45.5553 109.542 45.546C109.514 45.5367 109.462 45.532 109.388 45.532L109.276 45.546H109.108C108.94 45.5833 108.814 45.6207 108.73 45.658L108.408 45.84C108.333 45.896 108.244 45.9847 108.142 46.106L108.072 46.19C108.006 46.302 107.95 46.4093 107.904 46.512C107.894 46.512 107.89 46.5167 107.89 46.526V46.54C107.806 46.736 107.754 46.9227 107.736 47.1C107.736 47.1187 107.731 47.1327 107.722 47.142L107.708 51.51C107.708 51.6967 107.638 51.8553 107.498 51.986C107.367 52.1167 107.208 52.182 107.022 52.182ZM115.82 43.488C115.633 43.488 115.47 43.4227 115.33 43.292C115.199 43.152 115.134 42.9887 115.134 42.802C115.134 42.6153 115.199 42.4567 115.33 42.326C115.47 42.186 115.633 42.116 115.82 42.116C116.007 42.116 116.165 42.186 116.296 42.326C116.436 42.4567 116.506 42.6153 116.506 42.802C116.506 42.9887 116.436 43.152 116.296 43.292C116.165 43.4227 116.007 43.488 115.82 43.488ZM116.758 51.356C116.767 51.412 116.772 51.468 116.772 51.524C116.772 51.6453 116.739 51.7713 116.674 51.902C116.609 52.0327 116.478 52.1307 116.282 52.196C116.226 52.2053 116.175 52.21 116.128 52.21C116.007 52.21 115.871 52.1727 115.722 52.098C115.582 52.0327 115.489 51.9067 115.442 51.72C115.274 50.5907 115.171 49.4847 115.134 48.402C115.097 47.31 115.078 46.1993 115.078 45.07C115.078 44.8833 115.143 44.7247 115.274 44.594C115.414 44.454 115.577 44.384 115.764 44.384C115.951 44.384 116.109 44.454 116.24 44.594C116.38 44.7247 116.45 44.8833 116.45 45.07V45.798C116.45 46.6567 116.464 47.4873 116.492 48.29C116.511 48.8313 116.543 49.3727 116.59 49.914L116.674 50.726L116.702 50.922C116.702 50.95 116.707 50.978 116.716 51.006C116.725 51.118 116.739 51.2347 116.758 51.356ZM120.23 46.232H120.244V46.218L120.23 46.232ZM120.174 46.918C120.164 46.918 120.16 46.9133 120.16 46.904L120.174 46.918ZM121.322 52.364C120.64 52.364 120.038 52.182 119.516 51.818C119.049 51.482 118.718 51.048 118.522 50.516C118.503 50.4507 118.494 50.3853 118.494 50.32C118.494 50.208 118.536 50.0867 118.62 49.956C118.75 49.7507 118.937 49.648 119.18 49.648C119.497 49.648 119.716 49.816 119.838 50.152C119.847 50.152 119.852 50.1567 119.852 50.166C119.889 50.2593 119.94 50.3433 120.006 50.418V50.432C120.211 50.6373 120.402 50.7773 120.58 50.852C120.804 50.9547 121.065 51.006 121.364 51.006C121.653 50.9967 121.896 50.95 122.092 50.866H122.12C122.222 50.8193 122.33 50.754 122.442 50.67C122.554 50.5767 122.61 50.516 122.61 50.488C122.638 50.4507 122.661 50.4087 122.68 50.362C122.726 50.3153 122.759 50.18 122.778 49.956L122.736 49.592C122.68 49.4707 122.605 49.3633 122.512 49.27L122.19 49.088C122.171 49.088 122.143 49.0787 122.106 49.06C121.975 49.004 121.658 48.906 121.154 48.766C120.836 48.6913 120.524 48.598 120.216 48.486C119.684 48.318 119.259 48.01 118.942 47.562C118.792 47.2727 118.718 46.974 118.718 46.666C118.718 46.442 118.76 46.2133 118.844 45.98C119.049 45.476 119.385 45.07 119.852 44.762C120.328 44.454 120.85 44.3 121.42 44.3C121.896 44.3 122.334 44.4213 122.736 44.664C123.277 45.0373 123.655 45.5367 123.87 46.162C123.888 46.2273 123.898 46.2927 123.898 46.358C123.898 46.47 123.86 46.5913 123.786 46.722C123.655 46.9273 123.464 47.03 123.212 47.03C122.894 47.03 122.675 46.862 122.554 46.526C122.554 46.4887 122.544 46.47 122.526 46.47C122.451 46.2833 122.311 46.0873 122.106 45.882H122.092C121.914 45.7513 121.639 45.6767 121.266 45.658C121.247 45.6673 121.224 45.672 121.196 45.672C120.972 45.7 120.734 45.8027 120.482 45.98C120.379 46.0547 120.267 46.19 120.146 46.386C120.118 46.5073 120.104 46.652 120.104 46.82L120.188 46.96L120.174 46.918L120.244 46.988C120.328 47.044 120.412 47.0907 120.496 47.128C120.514 47.1467 120.538 47.1607 120.566 47.17C120.594 47.1793 120.622 47.1887 120.65 47.198C120.93 47.3007 121.205 47.3847 121.476 47.45C121.756 47.5153 122.031 47.59 122.302 47.674C122.815 47.8233 123.258 48.0847 123.632 48.458C123.977 48.878 124.15 49.354 124.15 49.886C124.15 50.53 123.935 51.0807 123.506 51.538C122.964 52.0887 122.236 52.364 121.322 52.364ZM130.319 45.994V46.26C130.319 47.7813 130.389 49.1067 130.529 50.236H130.543C130.683 50.292 130.902 50.348 131.201 50.404H131.257C131.359 50.4227 131.485 50.432 131.635 50.432L131.999 50.418C132.008 50.418 132.022 50.418 132.041 50.418C132.069 50.4087 132.092 50.404 132.111 50.404C132.129 50.404 132.143 50.3993 132.153 50.39C132.498 50.3433 132.764 50.2733 132.951 50.18L133.063 50.138C133.38 49.998 133.59 49.8767 133.693 49.774C133.702 49.774 133.711 49.7693 133.721 49.76C133.739 49.7413 133.758 49.7273 133.777 49.718C133.926 49.5967 134.066 49.4567 134.197 49.298L134.211 49.27C134.257 49.2233 134.327 49.116 134.421 48.948L134.533 48.738V48.71C134.607 48.5327 134.659 48.3507 134.687 48.164L134.701 48.08C134.71 47.9493 134.715 47.814 134.715 47.674C134.715 47.5433 134.691 47.4173 134.645 47.296C134.645 47.2307 134.593 47.128 134.491 46.988V46.974C134.388 46.8713 134.313 46.8013 134.267 46.764C134.267 46.7547 134.262 46.75 134.253 46.75C134.243 46.75 134.239 46.7453 134.239 46.736C134.099 46.6427 133.935 46.5493 133.749 46.456H133.735C133.492 46.3627 133.142 46.2647 132.685 46.162L132.335 46.106C131.663 46.0313 130.991 45.994 130.319 45.994ZM130.263 44.622C132.241 44.622 133.73 44.8927 134.729 45.434C135.214 45.6953 135.578 46.0733 135.821 46.568C135.998 46.9693 136.087 47.3893 136.087 47.828C136.087 48.6307 135.839 49.3633 135.345 50.026C134.421 51.202 133.189 51.79 131.649 51.79C131.303 51.79 130.963 51.7527 130.627 51.678C130.655 52.154 130.669 52.6253 130.669 53.092C130.669 53.4933 130.659 53.89 130.641 54.282C130.622 54.478 130.552 54.6413 130.431 54.772C130.309 54.9027 130.151 54.968 129.955 54.968C129.777 54.968 129.619 54.9027 129.479 54.772C129.339 54.6413 129.269 54.478 129.269 54.282C129.287 53.89 129.297 53.5027 129.297 53.12C129.297 52.0093 129.236 50.908 129.115 49.816C129.003 48.724 128.947 47.632 128.947 46.54C128.947 46.1293 128.956 45.7187 128.975 45.308C128.993 45.1213 129.063 44.9627 129.185 44.832C129.306 44.692 129.465 44.622 129.661 44.622L129.745 44.636C129.801 44.6267 129.973 44.622 130.263 44.622ZM140.93 52.35C140.38 52.35 139.848 52.2053 139.334 51.916C138.644 51.468 138.14 50.8567 137.822 50.082C137.542 49.41 137.402 48.7193 137.402 48.01C137.402 47.0393 137.64 46.2087 138.116 45.518C138.667 44.762 139.428 44.384 140.398 44.384C141.192 44.384 141.938 44.58 142.638 44.972C143.562 45.504 144.23 46.2553 144.64 47.226C144.846 47.6927 144.948 48.1593 144.948 48.626C144.948 49.1393 144.827 49.6573 144.584 50.18C144.323 50.6933 143.95 51.1227 143.464 51.468C142.988 51.804 142.475 52.0467 141.924 52.196C141.588 52.2987 141.257 52.35 140.93 52.35ZM140.79 50.978C140.94 50.978 141.066 50.9733 141.168 50.964L141.308 50.95C141.943 50.7727 142.428 50.5487 142.764 50.278C142.876 50.194 143.012 50.0633 143.17 49.886C143.17 49.8767 143.175 49.872 143.184 49.872C143.38 49.6013 143.506 49.3073 143.562 48.99C143.562 48.962 143.567 48.948 143.576 48.948L143.59 48.724C143.553 48.276 143.488 47.954 143.394 47.758V47.73L143.38 47.716C143.259 47.4453 143.128 47.2213 142.988 47.044C142.988 47.0347 142.984 47.03 142.974 47.03C142.582 46.5353 142.125 46.1853 141.602 45.98C141.248 45.84 140.986 45.77 140.818 45.77C140.706 45.7513 140.529 45.742 140.286 45.742C140.174 45.742 140.006 45.7747 139.782 45.84V45.854C139.698 45.8913 139.628 45.9333 139.572 45.98C139.526 46.0173 139.493 46.036 139.474 46.036L139.236 46.288C139.096 46.428 138.956 46.7873 138.816 47.366C138.788 47.562 138.774 47.772 138.774 47.996C138.774 48.248 138.807 48.5513 138.872 48.906C139.012 49.4473 139.222 49.9 139.502 50.264C139.96 50.7307 140.352 50.964 140.678 50.964L140.79 50.978ZM153.666 52.126C153.526 52.126 153.41 52.098 153.316 52.042C152.626 51.566 152.131 50.8147 151.832 49.788C151.692 49.2933 151.576 48.7613 151.482 48.192C151.417 47.8 151.338 47.436 151.244 47.1C150.694 49.508 149.989 51.0993 149.13 51.874C148.981 51.9953 148.822 52.056 148.654 52.056C148.057 52.056 147.46 50.8707 146.862 48.5C146.685 47.8 146.48 47.114 146.246 46.442C146.078 46.05 145.92 45.7373 145.77 45.504C145.714 45.4013 145.686 45.294 145.686 45.182C145.686 44.9207 145.798 44.7153 146.022 44.566C146.134 44.5007 146.246 44.468 146.358 44.468C146.965 44.468 147.567 45.6767 148.164 48.094C148.444 49.186 148.65 49.8627 148.78 50.124C148.864 49.9747 148.939 49.8253 149.004 49.676C149.023 49.62 149.046 49.564 149.074 49.508C149.102 49.452 149.116 49.4147 149.116 49.396C149.396 48.724 149.798 47.2913 150.32 45.098C150.432 44.762 150.656 44.594 150.992 44.594C151.31 44.594 151.622 44.8273 151.93 45.294C152.248 45.7513 152.462 46.2413 152.574 46.764C152.668 47.1467 152.747 47.5293 152.812 47.912C153.018 48.9667 153.186 49.6293 153.316 49.9C153.326 49.9187 153.335 49.9513 153.344 49.998C153.363 50.0353 153.428 50.1427 153.54 50.32C153.643 50.1147 153.741 49.9047 153.834 49.69C154.376 48.346 154.796 46.974 155.094 45.574C155.132 45.4153 155.16 45.2473 155.178 45.07C155.197 44.8927 155.262 44.7433 155.374 44.622C155.524 44.482 155.687 44.412 155.864 44.412C156.032 44.412 156.186 44.4773 156.326 44.608C156.476 44.7387 156.55 44.8973 156.55 45.084C156.364 46.3253 156.06 47.5387 155.64 48.724C154.875 50.992 154.217 52.126 153.666 52.126ZM161.614 52.252C160.41 52.252 159.374 51.7993 158.506 50.894C157.759 50.054 157.386 49.074 157.386 47.954C157.442 46.7593 157.95 45.8167 158.912 45.126C159.668 44.6407 160.47 44.398 161.32 44.398C162.216 44.398 162.972 44.6407 163.588 45.126C164.185 45.63 164.554 46.2973 164.694 47.128C164.731 47.2493 164.75 47.3707 164.75 47.492C164.75 48.556 163.513 49.088 161.04 49.088C160.33 49.088 159.63 49.0693 158.94 49.032L158.968 49.13L159.066 49.326L159.234 49.62L159.36 49.788V49.802C159.518 49.9793 159.696 50.152 159.892 50.32L159.962 50.376L160.452 50.656C160.461 50.656 160.475 50.6607 160.494 50.67C160.512 50.6793 160.531 50.6887 160.55 50.698C160.568 50.698 160.582 50.7027 160.592 50.712C160.722 50.7587 160.872 50.8007 161.04 50.838C161.086 50.838 161.119 50.8427 161.138 50.852L161.558 50.88C161.735 50.88 161.912 50.8707 162.09 50.852C162.136 50.852 162.16 50.8473 162.16 50.838C162.458 50.838 162.944 50.7027 163.616 50.432C163.681 50.404 163.751 50.39 163.826 50.39C163.928 50.39 164.045 50.432 164.176 50.516C164.381 50.6467 164.484 50.838 164.484 51.09C164.484 51.3887 164.316 51.608 163.98 51.748C163.149 52.084 162.36 52.252 161.614 52.252ZM160.76 47.702C161.32 47.702 161.88 47.6787 162.44 47.632C162.477 47.6227 162.519 47.618 162.566 47.618C162.566 47.6087 162.575 47.604 162.594 47.604C162.883 47.576 163.135 47.5153 163.35 47.422H163.364C163.364 47.3193 163.317 47.142 163.224 46.89C163.224 46.862 163.214 46.8387 163.196 46.82V46.806C163.112 46.638 163.037 46.5167 162.972 46.442V46.428C162.897 46.3347 162.813 46.2507 162.72 46.176L162.692 46.148C162.57 46.0547 162.449 45.9847 162.328 45.938L162.258 45.91C162.099 45.8447 161.94 45.8027 161.782 45.784L161.334 45.756C161.128 45.756 160.979 45.7653 160.886 45.784L160.452 45.896C160.181 45.952 159.906 46.0827 159.626 46.288C159.598 46.288 159.57 46.3113 159.542 46.358H159.528C159.462 46.414 159.402 46.4747 159.346 46.54L159.178 46.708C159.066 46.876 158.982 47.016 158.926 47.128V47.142C158.926 47.1513 158.921 47.156 158.912 47.156C158.874 47.2493 158.846 47.3427 158.828 47.436C158.809 47.52 158.79 47.5947 158.772 47.66C159.546 47.688 160.209 47.702 160.76 47.702ZM166.647 52.154C166.591 52.154 166.53 52.1447 166.465 52.126C166.129 52.0327 165.961 51.818 165.961 51.482C165.961 51.4167 165.97 51.3513 165.989 51.286C166.092 50.754 166.143 50.4553 166.143 50.39L166.171 50.152C166.227 49.7507 166.255 49.2 166.255 48.5C166.255 47.9027 166.241 47.31 166.213 46.722C166.194 46.134 166.185 45.5507 166.185 44.972C166.185 44.776 166.25 44.6127 166.381 44.482C166.512 44.3513 166.67 44.286 166.857 44.286C167.044 44.286 167.202 44.3513 167.333 44.482C167.473 44.6127 167.543 44.776 167.543 44.972V45.28C168.066 44.8787 168.64 44.5613 169.265 44.328C169.33 44.3093 169.396 44.3 169.461 44.3C169.573 44.3 169.699 44.342 169.839 44.426C170.035 44.5567 170.133 44.7527 170.133 45.014C170.133 45.3033 169.965 45.518 169.629 45.658L169.433 45.728C169.181 45.84 168.854 46.0313 168.453 46.302L168.369 46.372C168.108 46.5867 167.87 46.8293 167.655 47.1L167.599 47.156C167.618 47.5293 167.627 47.94 167.627 48.388C167.627 49.4893 167.52 50.5767 167.305 51.65C167.258 51.8367 167.151 51.9767 166.983 52.07C166.871 52.126 166.759 52.154 166.647 52.154ZM67.8689 69.126C67.7289 69.126 67.6122 69.098 67.5189 69.042C66.8282 68.566 66.3336 67.8147 66.0349 66.788C65.8949 66.2933 65.7782 65.7613 65.6849 65.192C65.6196 64.8 65.5402 64.436 65.4469 64.1C64.8962 66.508 64.1916 68.0993 63.3329 68.874C63.1836 68.9953 63.0249 69.056 62.8569 69.056C62.2596 69.056 61.6622 67.8707 61.0649 65.5C60.8876 64.8 60.6822 64.114 60.4489 63.442C60.2809 63.05 60.1222 62.7373 59.9729 62.504C59.9169 62.4013 59.8889 62.294 59.8889 62.182C59.8889 61.9207 60.0009 61.7153 60.2249 61.566C60.3369 61.5007 60.4489 61.468 60.5609 61.468C61.1676 61.468 61.7696 62.6767 62.3669 65.094C62.6469 66.186 62.8522 66.8627 62.9829 67.124C63.0669 66.9747 63.1416 66.8253 63.2069 66.676C63.2256 66.62 63.2489 66.564 63.2769 66.508C63.3049 66.452 63.3189 66.4147 63.3189 66.396C63.5989 65.724 64.0002 64.2913 64.5229 62.098C64.6349 61.762 64.8589 61.594 65.1949 61.594C65.5122 61.594 65.8249 61.8273 66.1329 62.294C66.4502 62.7513 66.6649 63.2413 66.7769 63.764C66.8702 64.1467 66.9496 64.5293 67.0149 64.912C67.2202 65.9667 67.3882 66.6293 67.5189 66.9C67.5282 66.9187 67.5376 66.9513 67.5469 66.998C67.5656 67.0353 67.6309 67.1427 67.7429 67.32C67.8456 67.1147 67.9436 66.9047 68.0369 66.69C68.5782 65.346 68.9982 63.974 69.2969 62.574C69.3342 62.4153 69.3622 62.2473 69.3809 62.07C69.3996 61.8927 69.4649 61.7433 69.5769 61.622C69.7262 61.482 69.8896 61.412 70.0669 61.412C70.2349 61.412 70.3889 61.4773 70.5289 61.608C70.6782 61.7387 70.7529 61.8973 70.7529 62.084C70.5662 63.3253 70.2629 64.5387 69.8429 65.724C69.0776 67.992 68.4196 69.126 67.8689 69.126ZM75.8162 69.252C74.6122 69.252 73.5762 68.7993 72.7082 67.894C71.9615 67.054 71.5882 66.074 71.5882 64.954C71.6442 63.7593 72.1529 62.8167 73.1142 62.126C73.8702 61.6407 74.6729 61.398 75.5222 61.398C76.4182 61.398 77.1742 61.6407 77.7902 62.126C78.3875 62.63 78.7562 63.2973 78.8962 64.128C78.9335 64.2493 78.9522 64.3707 78.9522 64.492C78.9522 65.556 77.7155 66.088 75.2422 66.088C74.5329 66.088 73.8329 66.0693 73.1422 66.032L73.1702 66.13L73.2682 66.326L73.4362 66.62L73.5622 66.788V66.802C73.7209 66.9793 73.8982 67.152 74.0942 67.32L74.1642 67.376L74.6542 67.656C74.6635 67.656 74.6775 67.6607 74.6962 67.67C74.7149 67.6793 74.7335 67.6887 74.7522 67.698C74.7709 67.698 74.7849 67.7027 74.7942 67.712C74.9249 67.7587 75.0742 67.8007 75.2422 67.838C75.2889 67.838 75.3215 67.8427 75.3402 67.852L75.7602 67.88C75.9375 67.88 76.1149 67.8707 76.2922 67.852C76.3389 67.852 76.3622 67.8473 76.3622 67.838C76.6609 67.838 77.1462 67.7027 77.8182 67.432C77.8835 67.404 77.9535 67.39 78.0282 67.39C78.1309 67.39 78.2475 67.432 78.3782 67.516C78.5835 67.6467 78.6862 67.838 78.6862 68.09C78.6862 68.3887 78.5182 68.608 78.1822 68.748C77.3515 69.084 76.5629 69.252 75.8162 69.252ZM74.9622 64.702C75.5222 64.702 76.0822 64.6787 76.6422 64.632C76.6795 64.6227 76.7215 64.618 76.7682 64.618C76.7682 64.6087 76.7775 64.604 76.7962 64.604C77.0855 64.576 77.3375 64.5153 77.5522 64.422H77.5662C77.5662 64.3193 77.5195 64.142 77.4262 63.89C77.4262 63.862 77.4169 63.8387 77.3982 63.82V63.806C77.3142 63.638 77.2395 63.5167 77.1742 63.442V63.428C77.0995 63.3347 77.0155 63.2507 76.9222 63.176L76.8942 63.148C76.7729 63.0547 76.6515 62.9847 76.5302 62.938L76.4602 62.91C76.3015 62.8447 76.1429 62.8027 75.9842 62.784L75.5362 62.756C75.3309 62.756 75.1815 62.7653 75.0882 62.784L74.6542 62.896C74.3835 62.952 74.1082 63.0827 73.8282 63.288C73.8002 63.288 73.7722 63.3113 73.7442 63.358H73.7302C73.6649 63.414 73.6042 63.4747 73.5482 63.54L73.3802 63.708C73.2682 63.876 73.1842 64.016 73.1282 64.128V64.142C73.1282 64.1513 73.1235 64.156 73.1142 64.156C73.0769 64.2493 73.0489 64.3427 73.0302 64.436C73.0115 64.52 72.9929 64.5947 72.9742 64.66C73.7489 64.688 74.4115 64.702 74.9622 64.702ZM86.8563 69.294C86.119 69.294 85.4283 69.0793 84.7843 68.65C83.8883 68.034 83.3283 67.1987 83.1043 66.144C83.067 65.92 83.0483 65.696 83.0483 65.472C83.0483 64.6413 83.403 63.806 84.1123 62.966C84.887 62.0887 85.8623 61.6033 87.0383 61.51C88.2516 61.51 89.1616 62.028 89.7683 63.064C89.8336 63.176 89.8663 63.288 89.8663 63.4C89.8663 63.6613 89.7496 63.862 89.5163 64.002C89.4043 64.058 89.2876 64.086 89.1663 64.086C88.905 64.086 88.7136 63.974 88.5923 63.75L88.4243 63.498V63.484L88.1303 63.19C88.0743 63.134 87.9716 63.0733 87.8223 63.008C87.7383 62.952 87.5096 62.91 87.1363 62.882C86.6883 62.882 86.1936 63.0547 85.6523 63.4C85.4936 63.4933 85.2976 63.68 85.0643 63.96C85.055 63.9787 85.041 63.9927 85.0223 64.002C84.8263 64.254 84.691 64.4873 84.6163 64.702L84.5463 64.898C84.4716 65.178 84.4343 65.3553 84.4343 65.43C84.4156 65.4673 84.4063 65.5373 84.4063 65.64C84.4063 65.808 84.4623 66.046 84.5743 66.354L84.5883 66.368C84.6723 66.564 84.775 66.746 84.8963 66.914L84.9243 66.928C85.1856 67.2453 85.545 67.5253 86.0023 67.768C86.0303 67.768 86.049 67.7727 86.0583 67.782C86.0676 67.7913 86.2543 67.8427 86.6183 67.936L86.8003 67.95L87.2063 67.922L87.4583 67.838C87.6636 67.726 87.8596 67.5253 88.0463 67.236L88.0603 67.18C88.0976 67.096 88.1303 67.0027 88.1583 66.9C88.205 66.7227 88.3123 66.5873 88.4803 66.494C88.583 66.4287 88.695 66.396 88.8163 66.396C88.8723 66.396 88.933 66.4053 88.9983 66.424C89.325 66.5267 89.4883 66.7507 89.4883 67.096C89.451 67.6 89.2083 68.0853 88.7603 68.552C88.2843 69.0467 87.6496 69.294 86.8563 69.294ZM92.1195 66.144C92.1195 66.116 92.1149 66.0973 92.1055 66.088L92.1195 66.144ZM93.8415 67.88C94.0095 67.8613 94.1729 67.824 94.3315 67.768C94.6769 67.6 94.9895 67.3433 95.2695 66.998C95.2789 66.998 95.2835 66.9933 95.2835 66.984C95.4702 66.7507 95.6149 66.508 95.7175 66.256C95.8762 65.8827 95.9555 65.5933 95.9555 65.388C95.9742 65.304 95.9835 65.178 95.9835 65.01C95.9742 64.898 95.9602 64.7953 95.9415 64.702C95.9322 64.5993 95.8995 64.464 95.8435 64.296C95.8435 64.2867 95.8389 64.282 95.8295 64.282C95.8015 64.2073 95.7315 64.086 95.6195 63.918C95.5915 63.89 95.5682 63.8573 95.5495 63.82C95.4095 63.6893 95.3302 63.6193 95.3115 63.61C95.2182 63.5353 95.0829 63.456 94.9055 63.372C94.8775 63.3627 94.8542 63.3487 94.8355 63.33C94.5462 63.218 94.2382 63.1527 93.9115 63.134C93.8929 63.1433 93.8509 63.148 93.7855 63.148L93.4495 63.246C93.3282 63.2927 93.1975 63.3767 93.0575 63.498C92.8802 63.6847 92.7169 63.8807 92.5675 64.086C92.3715 64.4687 92.2409 64.8 92.1755 65.08C92.1475 65.2667 92.1289 65.3693 92.1195 65.388L92.1055 65.752L92.1195 66.116C92.1195 66.2933 92.1709 66.5033 92.2735 66.746C92.2735 66.7647 92.2829 66.7927 92.3015 66.83C92.4322 67.1193 92.6095 67.3527 92.8335 67.53C92.8709 67.5487 92.9269 67.586 93.0015 67.642L93.2675 67.768C93.4355 67.8427 93.6269 67.88 93.8415 67.88ZM95.9555 65.388L95.9695 65.318V65.374L95.9555 65.388ZM93.7995 69.238C92.7169 69.1913 91.8769 68.7153 91.2795 67.81C90.9155 67.166 90.7335 66.4893 90.7335 65.78C90.7335 64.5293 91.1582 63.4747 92.0075 62.616C92.5862 62.056 93.2535 61.776 94.0095 61.776C94.6815 61.776 95.3395 61.9907 95.9835 62.42L95.9415 62.042C95.9415 61.9113 95.9742 61.7807 96.0395 61.65C96.1329 61.4447 96.3195 61.342 96.5995 61.342C96.7209 61.342 96.8515 61.3747 96.9915 61.44C97.2715 61.58 97.4395 62.5647 97.4955 64.394C97.5329 65.962 97.6775 67.0913 97.9295 67.782H97.9435L98.0695 68.034C98.1909 68.1553 98.2515 68.3233 98.2515 68.538C98.2515 68.706 98.1862 68.8553 98.0555 68.986C97.9249 69.1167 97.7522 69.182 97.5375 69.182C97.3695 69.182 97.2109 69.1073 97.0615 68.958C96.7815 68.5753 96.5855 68.1507 96.4735 67.684C96.1562 68.1413 95.7689 68.5147 95.3115 68.804C94.8542 69.084 94.3502 69.2287 93.7995 69.238ZM105.306 69.07C105.129 69.07 104.97 69.0047 104.83 68.874C104.7 68.7433 104.634 68.5847 104.634 68.398C104.634 68.0153 104.658 67.6 104.704 67.152C104.751 66.704 104.779 66.2233 104.788 65.71C104.76 64.898 104.667 64.2913 104.508 63.89C104.499 63.8807 104.494 63.8667 104.494 63.848C104.401 63.68 104.336 63.5727 104.298 63.526L104.284 63.498C103.995 63.1433 103.636 62.9007 103.206 62.77C102.964 62.6953 102.805 62.658 102.73 62.658C102.693 62.6393 102.502 62.63 102.156 62.63C102.016 62.6393 101.825 62.6907 101.582 62.784C101.433 62.868 101.349 62.9193 101.33 62.938C101.2 63.022 101.083 63.162 100.98 63.358C100.962 63.4607 100.929 63.5493 100.882 63.624V68.314C100.882 68.5007 100.817 68.664 100.686 68.804C100.556 68.9347 100.397 69 100.21 69C100.024 69 99.8604 68.9347 99.7204 68.804C99.5898 68.664 99.5244 68.5007 99.5244 68.314V61.986C99.5244 61.7993 99.5898 61.6407 99.7204 61.51C99.8604 61.37 100.024 61.3 100.21 61.3C100.462 61.3 100.658 61.4213 100.798 61.664C101.265 61.3933 101.802 61.258 102.408 61.258C102.856 61.258 103.3 61.342 103.738 61.51C104.336 61.7247 104.844 62.07 105.264 62.546C105.852 63.134 106.146 64.2353 106.146 65.85C106.146 66.298 106.123 66.6947 106.076 67.04C106.03 67.5347 106.002 67.9873 105.992 68.398C105.992 68.5847 105.922 68.7433 105.782 68.874C105.652 69.0047 105.493 69.07 105.306 69.07ZM114.861 69.252C113.657 69.252 112.621 68.7993 111.753 67.894C111.007 67.054 110.633 66.074 110.633 64.954C110.689 63.7593 111.198 62.8167 112.159 62.126C112.915 61.6407 113.718 61.398 114.567 61.398C115.463 61.398 116.219 61.6407 116.835 62.126C117.433 62.63 117.801 63.2973 117.941 64.128C117.979 64.2493 117.997 64.3707 117.997 64.492C117.997 65.556 116.761 66.088 114.287 66.088C113.578 66.088 112.878 66.0693 112.187 66.032L112.215 66.13L112.313 66.326L112.481 66.62L112.607 66.788V66.802C112.766 66.9793 112.943 67.152 113.139 67.32L113.209 67.376L113.699 67.656C113.709 67.656 113.723 67.6607 113.741 67.67C113.76 67.6793 113.779 67.6887 113.797 67.698C113.816 67.698 113.83 67.7027 113.839 67.712C113.97 67.7587 114.119 67.8007 114.287 67.838C114.334 67.838 114.367 67.8427 114.385 67.852L114.805 67.88C114.983 67.88 115.16 67.8707 115.337 67.852C115.384 67.852 115.407 67.8473 115.407 67.838C115.706 67.838 116.191 67.7027 116.863 67.432C116.929 67.404 116.999 67.39 117.073 67.39C117.176 67.39 117.293 67.432 117.423 67.516C117.629 67.6467 117.731 67.838 117.731 68.09C117.731 68.3887 117.563 68.608 117.227 68.748C116.397 69.084 115.608 69.252 114.861 69.252ZM114.007 64.702C114.567 64.702 115.127 64.6787 115.687 64.632C115.725 64.6227 115.767 64.618 115.813 64.618C115.813 64.6087 115.823 64.604 115.841 64.604C116.131 64.576 116.383 64.5153 116.597 64.422H116.611C116.611 64.3193 116.565 64.142 116.471 63.89C116.471 63.862 116.462 63.8387 116.443 63.82V63.806C116.359 63.638 116.285 63.5167 116.219 63.442V63.428C116.145 63.3347 116.061 63.2507 115.967 63.176L115.939 63.148C115.818 63.0547 115.697 62.9847 115.575 62.938L115.505 62.91C115.347 62.8447 115.188 62.8027 115.029 62.784L114.581 62.756C114.376 62.756 114.227 62.7653 114.133 62.784L113.699 62.896C113.429 62.952 113.153 63.0827 112.873 63.288C112.845 63.288 112.817 63.3113 112.789 63.358H112.775C112.71 63.414 112.649 63.4747 112.593 63.54L112.425 63.708C112.313 63.876 112.229 64.016 112.173 64.128V64.142C112.173 64.1513 112.169 64.156 112.159 64.156C112.122 64.2493 112.094 64.3427 112.075 64.436C112.057 64.52 112.038 64.5947 112.019 64.66C112.794 64.688 113.457 64.702 114.007 64.702ZM120.105 66.144C120.105 66.116 120.1 66.0973 120.091 66.088L120.105 66.144ZM121.827 67.88C121.995 67.8613 122.158 67.824 122.317 67.768C122.662 67.6 122.975 67.3433 123.255 66.998C123.264 66.998 123.269 66.9933 123.269 66.984C123.455 66.7507 123.6 66.508 123.703 66.256C123.861 65.8827 123.941 65.5933 123.941 65.388C123.959 65.304 123.969 65.178 123.969 65.01C123.959 64.898 123.945 64.7953 123.927 64.702C123.917 64.5993 123.885 64.464 123.829 64.296C123.829 64.2867 123.824 64.282 123.815 64.282C123.787 64.2073 123.717 64.086 123.605 63.918C123.577 63.89 123.553 63.8573 123.535 63.82C123.395 63.6893 123.315 63.6193 123.297 63.61C123.203 63.5353 123.068 63.456 122.891 63.372C122.863 63.3627 122.839 63.3487 122.821 63.33C122.531 63.218 122.223 63.1527 121.897 63.134C121.878 63.1433 121.836 63.148 121.771 63.148L121.435 63.246C121.313 63.2927 121.183 63.3767 121.043 63.498C120.865 63.6847 120.702 63.8807 120.553 64.086C120.357 64.4687 120.226 64.8 120.161 65.08C120.133 65.2667 120.114 65.3693 120.105 65.388L120.091 65.752L120.105 66.116C120.105 66.2933 120.156 66.5033 120.259 66.746C120.259 66.7647 120.268 66.7927 120.287 66.83C120.417 67.1193 120.595 67.3527 120.819 67.53C120.856 67.5487 120.912 67.586 120.987 67.642L121.253 67.768C121.421 67.8427 121.612 67.88 121.827 67.88ZM123.941 65.388L123.955 65.318V65.374L123.941 65.388ZM121.785 69.238C120.702 69.1913 119.862 68.7153 119.265 67.81C118.901 67.166 118.719 66.4893 118.719 65.78C118.719 64.5293 119.143 63.4747 119.993 62.616C120.571 62.056 121.239 61.776 121.995 61.776C122.667 61.776 123.325 61.9907 123.969 62.42L123.927 62.042C123.927 61.9113 123.959 61.7807 124.025 61.65C124.118 61.4447 124.305 61.342 124.585 61.342C124.706 61.342 124.837 61.3747 124.977 61.44C125.257 61.58 125.425 62.5647 125.481 64.394C125.518 65.962 125.663 67.0913 125.915 67.782H125.929L126.055 68.034C126.176 68.1553 126.237 68.3233 126.237 68.538C126.237 68.706 126.171 68.8553 126.041 68.986C125.91 69.1167 125.737 69.182 125.523 69.182C125.355 69.182 125.196 69.1073 125.047 68.958C124.767 68.5753 124.571 68.1507 124.459 67.684C124.141 68.1413 123.754 68.5147 123.297 68.804C122.839 69.084 122.335 69.2287 121.785 69.238ZM128.84 63.232H128.854V63.218L128.84 63.232ZM128.784 63.918C128.774 63.918 128.77 63.9133 128.77 63.904L128.784 63.918ZM129.932 69.364C129.25 69.364 128.648 69.182 128.126 68.818C127.659 68.482 127.328 68.048 127.132 67.516C127.113 67.4507 127.104 67.3853 127.104 67.32C127.104 67.208 127.146 67.0867 127.23 66.956C127.36 66.7507 127.547 66.648 127.79 66.648C128.107 66.648 128.326 66.816 128.448 67.152C128.457 67.152 128.462 67.1567 128.462 67.166C128.499 67.2593 128.55 67.3433 128.616 67.418V67.432C128.821 67.6373 129.012 67.7773 129.19 67.852C129.414 67.9547 129.675 68.006 129.974 68.006C130.263 67.9967 130.506 67.95 130.702 67.866H130.73C130.832 67.8193 130.94 67.754 131.052 67.67C131.164 67.5767 131.22 67.516 131.22 67.488C131.248 67.4507 131.271 67.4087 131.29 67.362C131.336 67.3153 131.369 67.18 131.388 66.956L131.346 66.592C131.29 66.4707 131.215 66.3633 131.122 66.27L130.8 66.088C130.781 66.088 130.753 66.0787 130.716 66.06C130.585 66.004 130.268 65.906 129.764 65.766C129.446 65.6913 129.134 65.598 128.826 65.486C128.294 65.318 127.869 65.01 127.552 64.562C127.402 64.2727 127.328 63.974 127.328 63.666C127.328 63.442 127.37 63.2133 127.454 62.98C127.659 62.476 127.995 62.07 128.462 61.762C128.938 61.454 129.46 61.3 130.03 61.3C130.506 61.3 130.944 61.4213 131.346 61.664C131.887 62.0373 132.265 62.5367 132.48 63.162C132.498 63.2273 132.508 63.2927 132.508 63.358C132.508 63.47 132.47 63.5913 132.396 63.722C132.265 63.9273 132.074 64.03 131.822 64.03C131.504 64.03 131.285 63.862 131.164 63.526C131.164 63.4887 131.154 63.47 131.136 63.47C131.061 63.2833 130.921 63.0873 130.716 62.882H130.702C130.524 62.7513 130.249 62.6767 129.876 62.658C129.857 62.6673 129.834 62.672 129.806 62.672C129.582 62.7 129.344 62.8027 129.092 62.98C128.989 63.0547 128.877 63.19 128.756 63.386C128.728 63.5073 128.714 63.652 128.714 63.82L128.798 63.96L128.784 63.918L128.854 63.988C128.938 64.044 129.022 64.0907 129.106 64.128C129.124 64.1467 129.148 64.1607 129.176 64.17C129.204 64.1793 129.232 64.1887 129.26 64.198C129.54 64.3007 129.815 64.3847 130.086 64.45C130.366 64.5153 130.641 64.59 130.912 64.674C131.425 64.8233 131.868 65.0847 132.242 65.458C132.587 65.878 132.76 66.354 132.76 66.886C132.76 67.53 132.545 68.0807 132.116 68.538C131.574 69.0887 130.846 69.364 129.932 69.364ZM135.162 60.488C134.975 60.488 134.812 60.4227 134.672 60.292C134.541 60.152 134.476 59.9887 134.476 59.802C134.476 59.6153 134.541 59.4567 134.672 59.326C134.812 59.186 134.975 59.116 135.162 59.116C135.349 59.116 135.507 59.186 135.638 59.326C135.778 59.4567 135.848 59.6153 135.848 59.802C135.848 59.9887 135.778 60.152 135.638 60.292C135.507 60.4227 135.349 60.488 135.162 60.488ZM136.1 68.356C136.109 68.412 136.114 68.468 136.114 68.524C136.114 68.6453 136.081 68.7713 136.016 68.902C135.951 69.0327 135.82 69.1307 135.624 69.196C135.568 69.2053 135.517 69.21 135.47 69.21C135.349 69.21 135.213 69.1727 135.064 69.098C134.924 69.0327 134.831 68.9067 134.784 68.72C134.616 67.5907 134.513 66.4847 134.476 65.402C134.439 64.31 134.42 63.1993 134.42 62.07C134.42 61.8833 134.485 61.7247 134.616 61.594C134.756 61.454 134.919 61.384 135.106 61.384C135.293 61.384 135.451 61.454 135.582 61.594C135.722 61.7247 135.792 61.8833 135.792 62.07V62.798C135.792 63.6567 135.806 64.4873 135.834 65.29C135.853 65.8313 135.885 66.3727 135.932 66.914L136.016 67.726L136.044 67.922C136.044 67.95 136.049 67.978 136.058 68.006C136.067 68.118 136.081 68.2347 136.1 68.356ZM139.516 67.684C139.553 67.7027 139.614 67.7167 139.698 67.726C139.716 67.7447 139.824 67.754 140.02 67.754C140.225 67.754 140.393 67.824 140.524 67.964C140.654 68.0947 140.72 68.2533 140.72 68.44C140.72 68.6173 140.654 68.776 140.524 68.916C140.393 69.0467 140.23 69.112 140.034 69.112H139.88C139.478 69.112 139.105 69.0187 138.76 68.832C138.284 68.524 138.046 68.0387 138.046 67.376V59.27C138.046 59.0833 138.111 58.9247 138.242 58.794C138.382 58.654 138.545 58.584 138.732 58.584C138.918 58.584 139.077 58.654 139.208 58.794C139.348 58.9247 139.418 59.0833 139.418 59.27C139.418 64.786 139.422 67.572 139.432 67.628H139.446L139.474 67.656H139.46C139.488 67.684 139.511 67.698 139.53 67.698L139.516 67.684ZM143.712 70.526L143.754 70.512H143.726C143.856 70.4747 144.015 70.3907 144.202 70.26C144.51 70.0453 144.771 69.798 144.986 69.518C144.995 69.518 145 69.5133 145 69.504C145 69.4947 145.004 69.4853 145.014 69.476C145.098 69.392 145.205 69.2287 145.336 68.986C144.542 68.6127 143.87 67.866 143.32 66.746C142.965 66.0273 142.573 65.0473 142.144 63.806C141.957 63.2553 141.826 62.896 141.752 62.728C141.686 62.6067 141.654 62.4853 141.654 62.364C141.654 62.112 141.766 61.916 141.99 61.776C142.102 61.72 142.218 61.692 142.34 61.692C142.62 61.692 142.816 61.804 142.928 62.028C143.124 62.4947 143.306 62.9707 143.474 63.456C144.006 65.052 144.524 66.214 145.028 66.942C145.056 66.998 145.093 67.0447 145.14 67.082L145.154 67.124C145.228 67.208 145.298 67.2827 145.364 67.348C145.438 67.4133 145.504 67.474 145.56 67.53C145.597 67.5487 145.625 67.5673 145.644 67.586C145.709 67.6327 145.793 67.6793 145.896 67.726C146.148 67.1007 146.362 66.186 146.54 64.982L146.568 64.772C146.68 63.8947 146.754 63.0127 146.792 62.126C146.81 61.93 146.88 61.7667 147.002 61.636C147.123 61.5053 147.282 61.44 147.478 61.44C147.655 61.44 147.814 61.5053 147.954 61.636C148.094 61.7667 148.164 61.93 148.164 62.126C147.996 66.6433 147.039 69.6533 145.294 71.156C144.538 71.7627 143.665 72.066 142.676 72.066C142.013 72.066 141.682 71.8327 141.682 71.366C141.682 71.1887 141.747 71.03 141.878 70.89C142.008 70.75 142.172 70.68 142.368 70.68C142.489 70.6893 142.676 70.694 142.928 70.694C143.161 70.666 143.422 70.61 143.712 70.526ZM160.164 69.126C160.024 69.126 159.907 69.098 159.814 69.042C159.123 68.566 158.629 67.8147 158.33 66.788C158.19 66.2933 158.073 65.7613 157.98 65.192C157.915 64.8 157.835 64.436 157.742 64.1C157.191 66.508 156.487 68.0993 155.628 68.874C155.479 68.9953 155.32 69.056 155.152 69.056C154.555 69.056 153.957 67.8707 153.36 65.5C153.183 64.8 152.977 64.114 152.744 63.442C152.576 63.05 152.417 62.7373 152.268 62.504C152.212 62.4013 152.184 62.294 152.184 62.182C152.184 61.9207 152.296 61.7153 152.52 61.566C152.632 61.5007 152.744 61.468 152.856 61.468C153.463 61.468 154.065 62.6767 154.662 65.094C154.942 66.186 155.147 66.8627 155.278 67.124C155.362 66.9747 155.437 66.8253 155.502 66.676C155.521 66.62 155.544 66.564 155.572 66.508C155.6 66.452 155.614 66.4147 155.614 66.396C155.894 65.724 156.295 64.2913 156.818 62.098C156.93 61.762 157.154 61.594 157.49 61.594C157.807 61.594 158.12 61.8273 158.428 62.294C158.745 62.7513 158.96 63.2413 159.072 63.764C159.165 64.1467 159.245 64.5293 159.31 64.912C159.515 65.9667 159.683 66.6293 159.814 66.9C159.823 66.9187 159.833 66.9513 159.842 66.998C159.861 67.0353 159.926 67.1427 160.038 67.32C160.141 67.1147 160.239 66.9047 160.332 66.69C160.873 65.346 161.293 63.974 161.592 62.574C161.629 62.4153 161.657 62.2473 161.676 62.07C161.695 61.8927 161.76 61.7433 161.872 61.622C162.021 61.482 162.185 61.412 162.362 61.412C162.53 61.412 162.684 61.4773 162.824 61.608C162.973 61.7387 163.048 61.8973 163.048 62.084C162.861 63.3253 162.558 64.5387 162.138 65.724C161.373 67.992 160.715 69.126 160.164 69.126ZM165.423 60.488C165.237 60.488 165.073 60.4227 164.933 60.292C164.803 60.152 164.737 59.9887 164.737 59.802C164.737 59.6153 164.803 59.4567 164.933 59.326C165.073 59.186 165.237 59.116 165.423 59.116C165.61 59.116 165.769 59.186 165.899 59.326C166.039 59.4567 166.109 59.6153 166.109 59.802C166.109 59.9887 166.039 60.152 165.899 60.292C165.769 60.4227 165.61 60.488 165.423 60.488ZM166.361 68.356C166.371 68.412 166.375 68.468 166.375 68.524C166.375 68.6453 166.343 68.7713 166.277 68.902C166.212 69.0327 166.081 69.1307 165.885 69.196C165.829 69.2053 165.778 69.21 165.731 69.21C165.61 69.21 165.475 69.1727 165.325 69.098C165.185 69.0327 165.092 68.9067 165.045 68.72C164.877 67.5907 164.775 66.4847 164.737 65.402C164.7 64.31 164.681 63.1993 164.681 62.07C164.681 61.8833 164.747 61.7247 164.877 61.594C165.017 61.454 165.181 61.384 165.367 61.384C165.554 61.384 165.713 61.454 165.843 61.594C165.983 61.7247 166.053 61.8833 166.053 62.07V62.798C166.053 63.6567 166.067 64.4873 166.095 65.29C166.114 65.8313 166.147 66.3727 166.193 66.914L166.277 67.726L166.305 67.922C166.305 67.95 166.31 67.978 166.319 68.006C166.329 68.118 166.343 68.2347 166.361 68.356ZM174.285 69.07C174.108 69.07 173.949 69.0047 173.809 68.874C173.678 68.7433 173.613 68.5847 173.613 68.398C173.613 68.0153 173.636 67.6 173.683 67.152C173.73 66.704 173.758 66.2233 173.767 65.71C173.739 64.898 173.646 64.2913 173.487 63.89C173.478 63.8807 173.473 63.8667 173.473 63.848C173.38 63.68 173.314 63.5727 173.277 63.526L173.263 63.498C172.974 63.1433 172.614 62.9007 172.185 62.77C171.942 62.6953 171.784 62.658 171.709 62.658C171.672 62.6393 171.48 62.63 171.135 62.63C170.995 62.6393 170.804 62.6907 170.561 62.784C170.412 62.868 170.328 62.9193 170.309 62.938C170.178 63.022 170.062 63.162 169.959 63.358C169.94 63.4607 169.908 63.5493 169.861 63.624V68.314C169.861 68.5007 169.796 68.664 169.665 68.804C169.534 68.9347 169.376 69 169.189 69C169.002 69 168.839 68.9347 168.699 68.804C168.568 68.664 168.503 68.5007 168.503 68.314V61.986C168.503 61.7993 168.568 61.6407 168.699 61.51C168.839 61.37 169.002 61.3 169.189 61.3C169.441 61.3 169.637 61.4213 169.777 61.664C170.244 61.3933 170.78 61.258 171.387 61.258C171.835 61.258 172.278 61.342 172.717 61.51C173.314 61.7247 173.823 62.07 174.243 62.546C174.831 63.134 175.125 64.2353 175.125 65.85C175.125 66.298 175.102 66.6947 175.055 67.04C175.008 67.5347 174.98 67.9873 174.971 68.398C174.971 68.5847 174.901 68.7433 174.761 68.874C174.63 69.0047 174.472 69.07 174.285 69.07ZM84.4664 86.252C83.2624 86.252 82.2264 85.7993 81.3584 84.894C80.6117 84.054 80.2384 83.074 80.2384 81.954C80.2944 80.7593 80.8031 79.8167 81.7644 79.126C82.5204 78.6407 83.3231 78.398 84.1724 78.398C85.0684 78.398 85.8244 78.6407 86.4404 79.126C87.0377 79.63 87.4064 80.2973 87.5464 81.128C87.5837 81.2493 87.6024 81.3707 87.6024 81.492C87.6024 82.556 86.3657 83.088 83.8924 83.088C83.1831 83.088 82.4831 83.0693 81.7924 83.032L81.8204 83.13L81.9184 83.326L82.0864 83.62L82.2124 83.788V83.802C82.3711 83.9793 82.5484 84.152 82.7444 84.32L82.8144 84.376L83.3044 84.656C83.3137 84.656 83.3277 84.6607 83.3464 84.67C83.3651 84.6793 83.3837 84.6887 83.4024 84.698C83.4211 84.698 83.4351 84.7027 83.4444 84.712C83.5751 84.7587 83.7244 84.8007 83.8924 84.838C83.9391 84.838 83.9717 84.8427 83.9904 84.852L84.4104 84.88C84.5877 84.88 84.7651 84.8707 84.9424 84.852C84.9891 84.852 85.0124 84.8473 85.0124 84.838C85.3111 84.838 85.7964 84.7027 86.4684 84.432C86.5337 84.404 86.6037 84.39 86.6784 84.39C86.7811 84.39 86.8977 84.432 87.0284 84.516C87.2337 84.6467 87.3364 84.838 87.3364 85.09C87.3364 85.3887 87.1684 85.608 86.8324 85.748C86.0017 86.084 85.2131 86.252 84.4664 86.252ZM83.6124 81.702C84.1724 81.702 84.7324 81.6787 85.2924 81.632C85.3297 81.6227 85.3717 81.618 85.4184 81.618C85.4184 81.6087 85.4277 81.604 85.4464 81.604C85.7357 81.576 85.9877 81.5153 86.2024 81.422H86.2164C86.2164 81.3193 86.1697 81.142 86.0764 80.89C86.0764 80.862 86.0671 80.8387 86.0484 80.82V80.806C85.9644 80.638 85.8897 80.5167 85.8244 80.442V80.428C85.7497 80.3347 85.6657 80.2507 85.5724 80.176L85.5444 80.148C85.4231 80.0547 85.3017 79.9847 85.1804 79.938L85.1104 79.91C84.9517 79.8447 84.7931 79.8027 84.6344 79.784L84.1864 79.756C83.9811 79.756 83.8317 79.7653 83.7384 79.784L83.3044 79.896C83.0337 79.952 82.7584 80.0827 82.4784 80.288C82.4504 80.288 82.4224 80.3113 82.3944 80.358H82.3804C82.3151 80.414 82.2544 80.4747 82.1984 80.54L82.0304 80.708C81.9184 80.876 81.8344 81.016 81.7784 81.128V81.142C81.7784 81.1513 81.7737 81.156 81.7644 81.156C81.7271 81.2493 81.6991 81.3427 81.6804 81.436C81.6617 81.52 81.6431 81.5947 81.6244 81.66C82.3991 81.688 83.0617 81.702 83.6124 81.702ZM91.8657 86.308C91.819 86.308 91.7304 86.2987 91.5997 86.28C91.4784 86.2613 91.357 86.1587 91.2357 85.972C90.6197 84.9173 90.1064 83.8113 89.6957 82.654L89.1497 81.17C88.8977 80.4607 88.6364 79.756 88.3657 79.056C88.3377 78.9907 88.3237 78.9207 88.3237 78.846C88.3237 78.7433 88.3657 78.6267 88.4497 78.496C88.5804 78.2907 88.7717 78.188 89.0237 78.188C89.3224 78.188 89.5417 78.356 89.6817 78.692C89.9524 79.3827 90.2137 80.078 90.4657 80.778C90.811 81.786 91.1284 82.6307 91.4177 83.312V83.326H91.4317C91.469 83.438 91.6184 83.7693 91.8797 84.32C92.0944 83.9187 92.2484 83.5967 92.3417 83.354L92.3697 83.298V83.27C92.4537 83.1207 92.7524 82.3273 93.2657 80.89C93.499 80.19 93.751 79.4993 94.0217 78.818C94.1337 78.482 94.353 78.314 94.6797 78.314C94.9224 78.314 95.123 78.4307 95.2817 78.664C95.347 78.7667 95.3797 78.8693 95.3797 78.972C95.3797 79.056 95.319 79.2427 95.1977 79.532L94.5957 81.212C94.3904 81.8093 94.1757 82.4067 93.9517 83.004C93.401 84.46 92.855 85.496 92.3137 86.112C92.1737 86.2427 92.0244 86.308 91.8657 86.308ZM100.421 86.252C99.2169 86.252 98.1809 85.7993 97.3129 84.894C96.5663 84.054 96.1929 83.074 96.1929 81.954C96.2489 80.7593 96.7576 79.8167 97.7189 79.126C98.4749 78.6407 99.2776 78.398 100.127 78.398C101.023 78.398 101.779 78.6407 102.395 79.126C102.992 79.63 103.361 80.2973 103.501 81.128C103.538 81.2493 103.557 81.3707 103.557 81.492C103.557 82.556 102.32 83.088 99.8469 83.088C99.1376 83.088 98.4376 83.0693 97.7469 83.032L97.7749 83.13L97.8729 83.326L98.0409 83.62L98.1669 83.788V83.802C98.3256 83.9793 98.5029 84.152 98.6989 84.32L98.7689 84.376L99.2589 84.656C99.2683 84.656 99.2823 84.6607 99.3009 84.67C99.3196 84.6793 99.3383 84.6887 99.3569 84.698C99.3756 84.698 99.3896 84.7027 99.3989 84.712C99.5296 84.7587 99.6789 84.8007 99.8469 84.838C99.8936 84.838 99.9263 84.8427 99.9449 84.852L100.365 84.88C100.542 84.88 100.72 84.8707 100.897 84.852C100.944 84.852 100.967 84.8473 100.967 84.838C101.266 84.838 101.751 84.7027 102.423 84.432C102.488 84.404 102.558 84.39 102.633 84.39C102.736 84.39 102.852 84.432 102.983 84.516C103.188 84.6467 103.291 84.838 103.291 85.09C103.291 85.3887 103.123 85.608 102.787 85.748C101.956 86.084 101.168 86.252 100.421 86.252ZM99.5669 81.702C100.127 81.702 100.687 81.6787 101.247 81.632C101.284 81.6227 101.326 81.618 101.373 81.618C101.373 81.6087 101.382 81.604 101.401 81.604C101.69 81.576 101.942 81.5153 102.157 81.422H102.171C102.171 81.3193 102.124 81.142 102.031 80.89C102.031 80.862 102.022 80.8387 102.003 80.82V80.806C101.919 80.638 101.844 80.5167 101.779 80.442V80.428C101.704 80.3347 101.62 80.2507 101.527 80.176L101.499 80.148C101.378 80.0547 101.256 79.9847 101.135 79.938L101.065 79.91C100.906 79.8447 100.748 79.8027 100.589 79.784L100.141 79.756C99.9356 79.756 99.7863 79.7653 99.6929 79.784L99.2589 79.896C98.9883 79.952 98.7129 80.0827 98.4329 80.288C98.4049 80.288 98.3769 80.3113 98.3489 80.358H98.3349C98.2696 80.414 98.2089 80.4747 98.1529 80.54L97.9849 80.708C97.8729 80.876 97.7889 81.016 97.7329 81.128V81.142C97.7329 81.1513 97.7283 81.156 97.7189 81.156C97.6816 81.2493 97.6536 81.3427 97.6349 81.436C97.6163 81.52 97.5976 81.5947 97.5789 81.66C98.3536 81.688 99.0163 81.702 99.5669 81.702ZM105.454 86.154C105.398 86.154 105.338 86.1447 105.272 86.126C104.936 86.0327 104.768 85.818 104.768 85.482C104.768 85.4167 104.778 85.3513 104.796 85.286C104.899 84.754 104.95 84.4553 104.95 84.39L104.978 84.152C105.034 83.7507 105.062 83.2 105.062 82.5C105.062 81.9027 105.048 81.31 105.02 80.722C105.002 80.134 104.992 79.5507 104.992 78.972C104.992 78.776 105.058 78.6127 105.188 78.482C105.319 78.3513 105.478 78.286 105.664 78.286C105.851 78.286 106.01 78.3513 106.14 78.482C106.28 78.6127 106.35 78.776 106.35 78.972V79.28C106.873 78.8787 107.447 78.5613 108.072 78.328C108.138 78.3093 108.203 78.3 108.268 78.3C108.38 78.3 108.506 78.342 108.646 78.426C108.842 78.5567 108.94 78.7527 108.94 79.014C108.94 79.3033 108.772 79.518 108.436 79.658L108.24 79.728C107.988 79.84 107.662 80.0313 107.26 80.302L107.176 80.372C106.915 80.5867 106.677 80.8293 106.462 81.1L106.406 81.156C106.425 81.5293 106.434 81.94 106.434 82.388C106.434 83.4893 106.327 84.5767 106.112 85.65C106.066 85.8367 105.958 85.9767 105.79 86.07C105.678 86.126 105.566 86.154 105.454 86.154ZM111.902 87.526L111.944 87.512H111.916C112.046 87.4747 112.205 87.3907 112.392 87.26C112.7 87.0453 112.961 86.798 113.176 86.518C113.185 86.518 113.19 86.5133 113.19 86.504C113.19 86.4947 113.194 86.4853 113.204 86.476C113.288 86.392 113.395 86.2287 113.526 85.986C112.732 85.6127 112.06 84.866 111.51 83.746C111.155 83.0273 110.763 82.0473 110.334 80.806C110.147 80.2553 110.016 79.896 109.942 79.728C109.876 79.6067 109.844 79.4853 109.844 79.364C109.844 79.112 109.956 78.916 110.18 78.776C110.292 78.72 110.408 78.692 110.53 78.692C110.81 78.692 111.006 78.804 111.118 79.028C111.314 79.4947 111.496 79.9707 111.664 80.456C112.196 82.052 112.714 83.214 113.218 83.942C113.246 83.998 113.283 84.0447 113.33 84.082L113.344 84.124C113.418 84.208 113.488 84.2827 113.554 84.348C113.628 84.4133 113.694 84.474 113.75 84.53C113.787 84.5487 113.815 84.5673 113.834 84.586C113.899 84.6327 113.983 84.6793 114.086 84.726C114.338 84.1007 114.552 83.186 114.73 81.982L114.758 81.772C114.87 80.8947 114.944 80.0127 114.982 79.126C115 78.93 115.07 78.7667 115.192 78.636C115.313 78.5053 115.472 78.44 115.668 78.44C115.845 78.44 116.004 78.5053 116.144 78.636C116.284 78.7667 116.354 78.93 116.354 79.126C116.186 83.6433 115.229 86.6533 113.484 88.156C112.728 88.7627 111.855 89.066 110.866 89.066C110.203 89.066 109.872 88.8327 109.872 88.366C109.872 88.1887 109.937 88.03 110.068 87.89C110.198 87.75 110.362 87.68 110.558 87.68C110.679 87.6893 110.866 87.694 111.118 87.694C111.351 87.666 111.612 87.61 111.902 87.526ZM124.476 86.294C123.739 86.294 123.048 86.0793 122.404 85.65C121.508 85.034 120.948 84.1987 120.724 83.144C120.687 82.92 120.668 82.696 120.668 82.472C120.668 81.6413 121.023 80.806 121.732 79.966C122.507 79.0887 123.482 78.6033 124.658 78.51C125.871 78.51 126.781 79.028 127.388 80.064C127.453 80.176 127.486 80.288 127.486 80.4C127.486 80.6613 127.369 80.862 127.136 81.002C127.024 81.058 126.907 81.086 126.786 81.086C126.525 81.086 126.333 80.974 126.212 80.75L126.044 80.498V80.484L125.75 80.19C125.694 80.134 125.591 80.0733 125.442 80.008C125.358 79.952 125.129 79.91 124.756 79.882C124.308 79.882 123.813 80.0547 123.272 80.4C123.113 80.4933 122.917 80.68 122.684 80.96C122.675 80.9787 122.661 80.9927 122.642 81.002C122.446 81.254 122.311 81.4873 122.236 81.702L122.166 81.898C122.091 82.178 122.054 82.3553 122.054 82.43C122.035 82.4673 122.026 82.5373 122.026 82.64C122.026 82.808 122.082 83.046 122.194 83.354L122.208 83.368C122.292 83.564 122.395 83.746 122.516 83.914L122.544 83.928C122.805 84.2453 123.165 84.5253 123.622 84.768C123.65 84.768 123.669 84.7727 123.678 84.782C123.687 84.7913 123.874 84.8427 124.238 84.936L124.42 84.95L124.826 84.922L125.078 84.838C125.283 84.726 125.479 84.5253 125.666 84.236L125.68 84.18C125.717 84.096 125.75 84.0027 125.778 83.9C125.825 83.7227 125.932 83.5873 126.1 83.494C126.203 83.4287 126.315 83.396 126.436 83.396C126.492 83.396 126.553 83.4053 126.618 83.424C126.945 83.5267 127.108 83.7507 127.108 84.096C127.071 84.6 126.828 85.0853 126.38 85.552C125.904 86.0467 125.269 86.294 124.476 86.294ZM132.119 86.35C131.569 86.35 131.037 86.2053 130.523 85.916C129.833 85.468 129.329 84.8567 129.011 84.082C128.731 83.41 128.591 82.7193 128.591 82.01C128.591 81.0393 128.829 80.2087 129.305 79.518C129.856 78.762 130.617 78.384 131.587 78.384C132.381 78.384 133.127 78.58 133.827 78.972C134.751 79.504 135.419 80.2553 135.829 81.226C136.035 81.6927 136.137 82.1593 136.137 82.626C136.137 83.1393 136.016 83.6573 135.773 84.18C135.512 84.6933 135.139 85.1227 134.653 85.468C134.177 85.804 133.664 86.0467 133.113 86.196C132.777 86.2987 132.446 86.35 132.119 86.35ZM131.979 84.978C132.129 84.978 132.255 84.9733 132.357 84.964L132.497 84.95C133.132 84.7727 133.617 84.5487 133.953 84.278C134.065 84.194 134.201 84.0633 134.359 83.886C134.359 83.8767 134.364 83.872 134.373 83.872C134.569 83.6013 134.695 83.3073 134.751 82.99C134.751 82.962 134.756 82.948 134.765 82.948L134.779 82.724C134.742 82.276 134.677 81.954 134.583 81.758V81.73L134.569 81.716C134.448 81.4453 134.317 81.2213 134.177 81.044C134.177 81.0347 134.173 81.03 134.163 81.03C133.771 80.5353 133.314 80.1853 132.791 79.98C132.437 79.84 132.175 79.77 132.007 79.77C131.895 79.7513 131.718 79.742 131.475 79.742C131.363 79.742 131.195 79.7747 130.971 79.84V79.854C130.887 79.8913 130.817 79.9333 130.761 79.98C130.715 80.0173 130.682 80.036 130.663 80.036L130.425 80.288C130.285 80.428 130.145 80.7873 130.005 81.366C129.977 81.562 129.963 81.772 129.963 81.996C129.963 82.248 129.996 82.5513 130.061 82.906C130.201 83.4473 130.411 83.9 130.691 84.264C131.149 84.7307 131.541 84.964 131.867 84.964L131.979 84.978ZM138.555 77.488C138.369 77.488 138.205 77.4227 138.065 77.292C137.935 77.152 137.869 76.9887 137.869 76.802C137.869 76.6153 137.935 76.4567 138.065 76.326C138.205 76.186 138.369 76.116 138.555 76.116C138.742 76.116 138.901 76.186 139.031 76.326C139.171 76.4567 139.241 76.6153 139.241 76.802C139.241 76.9887 139.171 77.152 139.031 77.292C138.901 77.4227 138.742 77.488 138.555 77.488ZM139.493 85.356C139.503 85.412 139.507 85.468 139.507 85.524C139.507 85.6453 139.475 85.7713 139.409 85.902C139.344 86.0327 139.213 86.1307 139.017 86.196C138.961 86.2053 138.91 86.21 138.863 86.21C138.742 86.21 138.607 86.1727 138.457 86.098C138.317 86.0327 138.224 85.9067 138.177 85.72C138.009 84.5907 137.907 83.4847 137.869 82.402C137.832 81.31 137.813 80.1993 137.813 79.07C137.813 78.8833 137.879 78.7247 138.009 78.594C138.149 78.454 138.313 78.384 138.499 78.384C138.686 78.384 138.845 78.454 138.975 78.594C139.115 78.7247 139.185 78.8833 139.185 79.07V79.798C139.185 80.6567 139.199 81.4873 139.227 82.29C139.246 82.8313 139.279 83.3727 139.325 83.914L139.409 84.726L139.437 84.922C139.437 84.95 139.442 84.978 139.451 85.006C139.461 85.118 139.475 85.2347 139.493 85.356ZM147.417 86.07C147.24 86.07 147.081 86.0047 146.941 85.874C146.811 85.7433 146.745 85.5847 146.745 85.398C146.745 85.0153 146.769 84.6 146.815 84.152C146.862 83.704 146.89 83.2233 146.899 82.71C146.871 81.898 146.778 81.2913 146.619 80.89C146.61 80.8807 146.605 80.8667 146.605 80.848C146.512 80.68 146.447 80.5727 146.409 80.526L146.395 80.498C146.106 80.1433 145.747 79.9007 145.317 79.77C145.075 79.6953 144.916 79.658 144.841 79.658C144.804 79.6393 144.613 79.63 144.267 79.63C144.127 79.6393 143.936 79.6907 143.693 79.784C143.544 79.868 143.46 79.9193 143.441 79.938C143.311 80.022 143.194 80.162 143.091 80.358C143.073 80.4607 143.04 80.5493 142.993 80.624V85.314C142.993 85.5007 142.928 85.664 142.797 85.804C142.667 85.9347 142.508 86 142.321 86C142.135 86 141.971 85.9347 141.831 85.804C141.701 85.664 141.635 85.5007 141.635 85.314V78.986C141.635 78.7993 141.701 78.6407 141.831 78.51C141.971 78.37 142.135 78.3 142.321 78.3C142.573 78.3 142.769 78.4213 142.909 78.664C143.376 78.3933 143.913 78.258 144.519 78.258C144.967 78.258 145.411 78.342 145.849 78.51C146.447 78.7247 146.955 79.07 147.375 79.546C147.963 80.134 148.257 81.2353 148.257 82.85C148.257 83.298 148.234 83.6947 148.187 84.04C148.141 84.5347 148.113 84.9873 148.103 85.398C148.103 85.5847 148.033 85.7433 147.893 85.874C147.763 86.0047 147.604 86.07 147.417 86.07ZM151.735 80.232H151.749V80.218L151.735 80.232ZM151.679 80.918C151.67 80.918 151.665 80.9133 151.665 80.904L151.679 80.918ZM152.827 86.364C152.146 86.364 151.544 86.182 151.021 85.818C150.555 85.482 150.223 85.048 150.027 84.516C150.009 84.4507 149.999 84.3853 149.999 84.32C149.999 84.208 150.041 84.0867 150.125 83.956C150.256 83.7507 150.443 83.648 150.685 83.648C151.003 83.648 151.222 83.816 151.343 84.152C151.353 84.152 151.357 84.1567 151.357 84.166C151.395 84.2593 151.446 84.3433 151.511 84.418V84.432C151.717 84.6373 151.908 84.7773 152.085 84.852C152.309 84.9547 152.571 85.006 152.869 85.006C153.159 84.9967 153.401 84.95 153.597 84.866H153.625C153.728 84.8193 153.835 84.754 153.947 84.67C154.059 84.5767 154.115 84.516 154.115 84.488C154.143 84.4507 154.167 84.4087 154.185 84.362C154.232 84.3153 154.265 84.18 154.283 83.956L154.241 83.592C154.185 83.4707 154.111 83.3633 154.017 83.27L153.695 83.088C153.677 83.088 153.649 83.0787 153.611 83.06C153.481 83.004 153.163 82.906 152.659 82.766C152.342 82.6913 152.029 82.598 151.721 82.486C151.189 82.318 150.765 82.01 150.447 81.562C150.298 81.2727 150.223 80.974 150.223 80.666C150.223 80.442 150.265 80.2133 150.349 79.98C150.555 79.476 150.891 79.07 151.357 78.762C151.833 78.454 152.356 78.3 152.925 78.3C153.401 78.3 153.84 78.4213 154.241 78.664C154.783 79.0373 155.161 79.5367 155.375 80.162C155.394 80.2273 155.403 80.2927 155.403 80.358C155.403 80.47 155.366 80.5913 155.291 80.722C155.161 80.9273 154.969 81.03 154.717 81.03C154.4 81.03 154.181 80.862 154.059 80.526C154.059 80.4887 154.05 80.47 154.031 80.47C153.957 80.2833 153.817 80.0873 153.611 79.882H153.597C153.42 79.7513 153.145 79.6767 152.771 79.658C152.753 79.6673 152.729 79.672 152.701 79.672C152.477 79.7 152.239 79.8027 151.987 79.98C151.885 80.0547 151.773 80.19 151.651 80.386C151.623 80.5073 151.609 80.652 151.609 80.82L151.693 80.96L151.679 80.918L151.749 80.988C151.833 81.044 151.917 81.0907 152.001 81.128C152.02 81.1467 152.043 81.1607 152.071 81.17C152.099 81.1793 152.127 81.1887 152.155 81.198C152.435 81.3007 152.711 81.3847 152.981 81.45C153.261 81.5153 153.537 81.59 153.807 81.674C154.321 81.8233 154.764 82.0847 155.137 82.458C155.483 82.878 155.655 83.354 155.655 83.886C155.655 84.53 155.441 85.0807 155.011 85.538C154.47 86.0887 153.742 86.364 152.827 86.364Z" fill="black"/>
</svg>
